<svg width="43" height="42" viewBox="0 0 43 42" fill="none" xmlns="http://www.w3.org/2000/svg">
<path d="M22.6005 42C16.5469 42 10.8668 39.7082 6.60648 35.5472C2.34615 31.3861 5.29301e-07 25.8378 5.29301e-07 19.9249C-0.000903176 15.8459 1.15542 11.8464 3.34062 8.3704C5.52583 4.89439 8.65444 2.07781 12.3792 0.233274C12.7624 0.0424723 13.1946 -0.0338573 13.622 0.0138133C14.0493 0.0614838 14.4528 0.231043 14.7821 0.501324C15.1114 0.771605 15.3519 1.13063 15.4736 1.53359C15.5953 1.93655 15.5927 2.36559 15.4663 2.76715C14.4034 6.12041 14.299 9.69361 15.1642 13.1006C16.0294 16.5077 17.8315 19.619 20.3756 22.0983C22.2013 23.8948 24.3737 25.3198 26.7671 26.2907C29.1605 27.2617 31.7273 27.7592 34.3188 27.7547C36.3014 27.7562 38.2728 27.4657 40.1667 26.8932C40.5779 26.7696 41.0172 26.767 41.4298 26.8859C41.8424 27.0047 42.21 27.2396 42.4868 27.5613C42.7635 27.8829 42.9371 28.2771 42.9859 28.6946C43.0347 29.112 42.9564 29.5343 42.761 29.9086C40.8726 33.5467 37.9889 36.6025 34.4301 38.7369C30.8714 40.8714 26.7767 42.0008 22.6005 42ZM12.301 3.48003C9.41263 5.19654 7.02669 7.61206 5.37396 10.4929C3.72123 13.3738 2.85764 16.6225 2.86674 19.9249C2.86674 30.5531 11.7192 39.1999 22.6005 39.1999C25.9815 39.2088 29.3076 38.3653 32.2571 36.751C35.2066 35.1368 37.6796 32.8063 39.437 29.9851C37.7588 30.3645 36.0417 30.5557 34.319 30.555C31.3508 30.5605 28.411 29.991 25.6697 28.8793C22.9284 27.7676 20.4401 26.1358 18.3488 24.0785C15.632 21.4299 13.651 18.1488 12.5928 14.5448C11.5347 10.9408 11.4342 7.13243 12.301 3.48003Z" fill="white"/>
</svg>
